<?xml version="1.0" encoding="utf-8"?>
<svg version="1.1" xmlns:xlink="http://www.w3.org/1999/xlink" width="91px" height="75px" xmlns="http://www.w3.org/2000/svg">
  <g transform="matrix(1 0 0 1 -197 -2552 )">
    <path d="M 28.3321759259259 66.1576704545455  C 29.6662808641975 64.8082386363636  30.3333333333333 63.2102272727273  30.3333333333333 61.3636363636364  C 30.3333333333333 59.5170454545454  29.6662808641975 57.9190340909091  28.3321759259259 56.5696022727273  C 26.9980709876543 55.2201704545455  25.4182098765432 54.5454545454545  23.5925925925926 54.5454545454545  C 21.766975308642 54.5454545454545  20.1871141975309 55.2201704545455  18.8530092592593 56.5696022727273  C 17.5189043209877 57.9190340909091  16.8518518518519 59.5170454545454  16.8518518518519 61.3636363636364  C 16.8518518518519 63.2102272727273  17.5189043209877 64.8082386363636  18.8530092592593 66.1576704545455  C 20.1871141975309 67.5071022727273  21.766975308642 68.1818181818182  23.5925925925926 68.1818181818182  C 25.4182098765432 68.1818181818182  26.9980709876543 67.5071022727273  28.3321759259259 66.1576704545455  Z M 10.1111111111111 32.4928977272727  L 10.1111111111111 34  L 31 34  L 31 20.4545454545455  L 22.0127314814815 20.4545454545455  C 21.5563271604938 20.4545454545455  21.1701388888889 20.6143465909091  20.8541666666667 20.9339488636364  L 10.5850694444444 31.3210227272727  C 10.2690972222222 31.640625  10.1111111111111 32.03125  10.1111111111111 32.4928977272727  Z M 75.5173611111111 66.1576704545455  C 76.8514660493827 64.8082386363636  77.5185185185185 63.2102272727273  77.5185185185185 61.3636363636364  C 77.5185185185185 59.5170454545454  76.8514660493827 57.9190340909091  75.5173611111111 56.5696022727273  C 74.1832561728395 55.2201704545455  72.6033950617284 54.5454545454545  70.7777777777778 54.5454545454545  C 68.9521604938272 54.5454545454545  67.3722993827161 55.2201704545455  66.0381944444444 56.5696022727273  C 64.7040895061728 57.9190340909091  64.037037037037 59.5170454545454  64.037037037037 61.3636363636364  C 64.037037037037 63.2102272727273  64.7040895061728 64.8082386363636  66.0381944444444 66.1576704545455  C 67.3722993827161 67.5071022727273  68.9521604938272 68.1818181818182  70.7777777777778 68.1818181818182  C 72.6033950617284 68.1818181818182  74.1832561728395 67.5071022727273  75.5173611111111 66.1576704545455  Z M 89.9994212962963 1.01207386363637  C 90.6664737654321 1.68678977272726  91 2.48579545454545  91 3.40909090909091  L 91 57.9545454545455  C 91 58.4872159090909  90.9297839506173 58.9577414772727  90.7893518518519 59.3661221590909  C 90.6489197530864 59.7745028409091  90.4119405864198 60.1029829545454  90.0784143518519 60.3515625  C 89.7448881172839 60.6001420454546  89.4552469135803 60.8043323863636  89.2094907407407 60.9641335227273  C 88.9637345679012 61.1239346590909  88.5512152777778 61.23046875  87.9719328703704 61.2837357954545  C 87.392650462963 61.3370028409091  86.9976851851852 61.3725142045455  86.787037037037 61.3902698863636  C 86.5763888888889 61.4080255681818  86.1287615740741 61.4080255681818  85.4441550925926 61.3902698863636  C 84.7595486111111 61.3725142045455  84.3645833333333 61.3636363636364  84.2592592592593 61.3636363636364  C 84.2592592592593 65.1278409090909  82.9427083333333 68.3416193181818  80.3096064814815 71.0049715909091  C 77.6765046296296 73.6683238636364  74.4992283950617 75  70.7777777777778 75  C 67.0563271604938 75  63.8790509259259 73.6683238636364  61.2459490740741 71.0049715909091  C 58.6128472222222 68.3416193181818  57.2962962962963 65.1278409090909  57.2962962962963 61  L 37.0740740740741 61  C 37.0740740740741 65.1278409090909  35.7575231481482 68.3416193181818  33.1244212962963 71.0049715909091  C 30.4913194444444 73.6683238636364  27.3140432098765 75  23.5925925925926 75  C 19.8711419753086 75  16.6938657407407 73.6683238636364  14.0607638888889 71.0049715909091  C 11.427662037037 68.3416193181818  10.1111111111111 65.1278409090909  10.1111111111111 61.3636363636364  L 6.74074074074074 61.3636363636364  C 6.63541666666667 61.3636363636364  6.24045138888889 61.3725142045455  5.55584490740741 61.3902698863636  C 4.87123842592593 61.4080255681818  4.42361111111111 61.4080255681818  4.21296296296296 61.3902698863636  C 4.00231481481481 61.3725142045455  3.60734953703704 61.3370028409091  3.02806712962963 61.2837357954545  C 2.44878472222222 61.23046875  2.03626543209877 61.1239346590909  1.79050925925926 60.9641335227273  C 1.54475308641975 60.8043323863636  1.25511188271605 60.6001420454546  0.921585648148148 60.3515625  C 0.588059413580247 60.1029829545454  0.351080246913581 59.7745028409091  0.210648148148148 59.3661221590909  C 0.0702160493827166 58.9577414772727  0 58.4872159090909  0 57.9545454545455  C 0 57.03125  0.333526234567902 56.2322443181818  1.0005787037037 55.5575284090909  C 1.66763117283951 54.8828125  2.45756172839506 54.5454545454545  4 54.5454545454545  L 4 37.5  C 3.37037037037037 37.2159090909091  3.36159336419753 36.5944602272727  3.34403935185185 35.6356534090909  C 3.32648533950617 34.6768465909091  3.32648533950617 34.0021306818182  3.34403935185185 33.6115056818182  C 3.36159336419753 33.2208806818182  3.40547839506173 32.6083096590909  3.47569444444444 31.7737926136364  C 3.54591049382716 30.9392755681818  3.66001157407407 30.2823153409091  3.81799768518519 29.8029119318182  C 3.9759837962963 29.3235085227273  4.2217399691358 28.7819602272727  4.5552662037037 28.1782670454545  C 4.88879243827161 27.5745738636364  5.28375771604938 27.0419034090909  5.74016203703704 26.5802556818182  L 16.1672453703704 16.0333806818182  C 16.8342978395062 15.3586647727273  17.720775462963 14.7904829545454  18.8266782407407 14.3288352272727  C 19.9325810185185 13.8671875  20.9594907407407 13.6363636363636  21.9074074074074 13.6363636363636  L 31 13.6363636363636  L 31 3.40909090909091  C 30.3333333333333 2.48579545454545  30.6668595679012 1.68678977272726  31.333912037037 1.01207386363637  C 32.0009645061728 0.337357954545447  32.7908950617284 0  33.7037037037037 0  L 87.6296296296296 0  C 88.5424382716049 0  89.3323688271605 0.337357954545447  89.9994212962963 1.01207386363637  Z " fill-rule="nonzero" fill="#2699fb" stroke="none" transform="matrix(1 0 0 1 197 2552 )" />
  </g>
</svg>