<?xml version="1.0" encoding="utf-8"?>
<svg version="1.1" xmlns:xlink="http://www.w3.org/1999/xlink" width="110px" height="48px" xmlns="http://www.w3.org/2000/svg">
  <g transform="matrix(1 0 0 1 -462 -2575 )">
    <path d="M 109.27 17.4537931034483  C 109.266666666667 6.44855172413793  102.566666666667 1.6551724137931  88.3066666666667 2  L 73 2  L 73 36.6289655172414  L 60.345 2  L 47.4166666666667 2  L 36.2866666666667 30.8623448275862  C 35.1033333333333 23.4273103448276  27.3633333333333 20.8617931034483  21.2733333333333 18.9401379310345  C 17.2516666666667 17.6573793103448  12.9833333333333 15.7704827586207  13.0266666666667 13.6849655172414  C 13.06 11.9735172413793  15.31 10.3862068965517  19.7816666666667 10.6228965517241  C 22.7816666666667 10.7834482758621  25.4316666666667 11.0234482758621  30.7033333333333 13.5525517241379  L 35.8866666666667 4.58151724137931  C 31.08 2.15172413793104  24.4333333333333 0.617379310344827  18.9833333333333 0.612413793103447  L 18.95 0.612413793103447  C 12.595 0.612413793103447  7.30333333333333 2.65655172413793  4.02333333333334 6.02482758620689  C 1.73666666666667 8.3751724137931  0.503333333333336 11.3644137931034  0.453333333333336 14.6697931034483  C 0.370000000000003 19.2182068965517  2.04833333333334 22.4424827586207  5.575 25.0195862068966  C 8.555 27.1878620689655  12.3666666666667 28.5947586206897  15.725 29.6275862068965  C 19.8666666666667 30.9020689655172  23.25 32.0110344827586  23.2083333333333 34.3713103448276  C 23.175 35.232  22.8483333333333 36.0364137931034  22.225 36.6852413793103  C 21.1916666666667 37.7445517241379  19.6083333333333 38.1417931034483  17.4166666666667 38.1848275862069  C 13.1883333333333 38.2742068965517  10.055 37.6137931034483  5.06166666666667 34.6824827586207  L 0.45 43.7693793103448  C 5.43833333333333 46.5864827586207  10.7333333333333 48  16.75 48  L 18.1033333333333 47.9900689655172  C 23.34 47.895724137931  27.59 46.6493793103448  30.9666666666667 43.9514482758621  C 31.16 43.7975172413793  31.3333333333333 43.6419310344828  31.5133333333333 43.4846896551724  L 30.9466666666667 46  L 43.58 46  L 45.8466666666667 40.5815172413793  C 48.23 41.3892413793104  50.94 41.8361379310345  53.8166666666667 41.8361379310345  C 56.62 41.8361379310345  59.2566666666667 41.4124137931035  61.595 40.6510344827586  L 63.175 46  L 85 46  L 85 33.2275862068966  L 90.72 33.2275862068966  C 102.378333333333 33.2275862068966  109.27 27.3351724137931  109.27 17.4537931034483  Z M 53.815 31.5508965517241  L 53.8166666666667 31.5508965517241  C 52.075 31.5508965517241  50.4416666666667 31.2496551724138  49.0366666666667 30.72  L 53.7633333333333 15.8979310344828  L 53.855 15.8979310344828  L 58.505 30.7613793103448  C 57.105 31.2579310344828  55.51 31.5508965517241  53.815 31.5508965517241  Z M 97.0683333333333 16.9853793103448  C 97.065 21.5867586206897  93.5683333333333 23.0350344827586  89.1833333333333 23.0350344827586  L 85 23.0350344827586  L 85 11.0896551724138  L 89.185 11.0896551724138  C 93.5683333333333 11.0896551724138  97.0683333333333 12.5395862068966  97.0683333333333 16.9853793103448  Z " fill-rule="nonzero" fill="#ffffff" stroke="none" transform="matrix(1 0 0 1 462 2575 )" />
  </g>
</svg>