<?xml version="1.0" encoding="utf-8"?>
<svg version="1.1" xmlns:xlink="http://www.w3.org/1999/xlink" width="53px" height="75px" xmlns="http://www.w3.org/2000/svg">
  <g transform="matrix(1 0 0 1 -1096 -2561 )">
    <path d="M 53 26.25  C 53 11.7375  41.1507142857143 0  26.5 0  C 11.8492857142857 0  0 11.7375  0 26.25  C 0 45.9375  26.5 75  26.5 75  C 26.5 75  53 45.9375  53 26.25  Z M 26.5 63.3  C 18.6257142857143 53.2875  7.57142857142857 36.9375  7.57142857142857 26.25  C 7.57142857142857 15.9  16.0514285714286 7.5  26.5 7.5  C 36.9485714285714 7.5  45.4285714285714 15.9  45.4285714285714 26.25  C 45.4285714285714 37.05  34.5257142857143 53.2125  26.5 63.3  Z " fill-rule="nonzero" fill="#2699fb" stroke="none" transform="matrix(1 0 0 1 1096 2561 )" />
  </g>
</svg>