<?xml version="1.0" encoding="utf-8"?>
<svg version="1.1" xmlns:xlink="http://www.w3.org/1999/xlink" width="87px" height="75px" xmlns="http://www.w3.org/2000/svg">
  <g transform="matrix(1 0 0 1 -786 -2561 )">
    <path d="M 80.76953125 45.7256610576923  C 81.0565104166667 45.4402043269231  81.2 45.1021634615385  81 44.7115384615385  L 81 7.21153846153846  C 81.2 6.82091346153846  81.0565104166667 6.48287259615384  80.76953125 6.19741586538462  C 80.4825520833333 5.91195913461538  80.1427083333333 5.76923076923077  79.75 6  L 7.25 6  C 6.85729166666667 5.76923076923077  6.51744791666667 5.91195913461538  6.23046875 6.19741586538462  C 5.94348958333333 6.48287259615384  5.8 6.82091346153846  6 7.21153846153846  L 6 44.7115384615385  C 5.8 45.1021634615385  5.94348958333333 45.4402043269231  6.23046875 45.7256610576923  C 6.51744791666667 46.0111177884615  6.85729166666667 46.1538461538462  7.25 46  L 79.75 46  C 80.1427083333333 46.1538461538462  80.4825520833333 46.0111177884615  80.76953125 45.7256610576923  Z M 84.8703125 2.11838942307692  C 86.2901041666667 3.53064903846154  87 5.22836538461538  87 7.21153846153846  L 87 56.25  C 87 58.2331730769231  86.2901041666667 59.9308894230769  84.8703125 61.3431490384615  C 83.4505208333333 62.7554086538461  81.74375 63.4615384615385  79.75 63  L 55.1 63  C 55.1 64.5733173076923  55.3416666666667 65.7376802884615  55.825 66.9546274038462  C 56.3083333333333 68.1715745192308  56.7916666666667 69.23828125  57.275 70.1547475961538  C 57.7583333333333 71.0712139423077  58 71.7247596153846  58 72.1153846153846  C 58 72.8966346153846  57.7130208333333 73.5727163461538  57.1390625 74.1436298076923  C 56.5651041666667 74.7145432692308  55.8854166666667 75  55.1 75  L 31.9 75  C 31.1145833333333 75  30.4348958333333 74.7145432692308  29.8609375 74.1436298076923  C 29.2869791666667 73.5727163461538  29 72.8966346153846  29 72.1153846153846  C 29 71.6947115384615  29.2416666666667 71.0336538461538  29.725 70.1322115384615  C 30.2083333333333 69.2307692307692  30.6916666666667 68.1790865384615  31.175 66.9771634615385  C 31.6583333333333 65.7752403846154  31.9 64.6033653846154  31.9 63  L 7.25 63  C 5.25625 63.4615384615385  3.54947916666667 62.7554086538461  2.1296875 61.3431490384615  C 0.709895833333333 59.9308894230769  0 58.2331730769231  0 56.25  L 0 7.21153846153846  C 0 5.22836538461538  0.709895833333333 3.53064903846154  2.1296875 2.11838942307692  C 3.54947916666667 0.706129807692307  5.25625 0  7.25 0  L 79.75 0  C 81.74375 0  83.4505208333333 0.706129807692307  84.8703125 2.11838942307692  Z " fill-rule="nonzero" fill="#2699fb" stroke="none" transform="matrix(1 0 0 1 786 2561 )" />
  </g>
</svg>