<?xml version="1.0" encoding="utf-8"?>
<svg version="1.1" xmlns:xlink="http://www.w3.org/1999/xlink" width="48px" height="41px" xmlns="http://www.w3.org/2000/svg">
  <g transform="matrix(1 0 0 1 -166 -1644 )">
    <path d="M 18.9125 18.6397235576923  C 20.3208333333333 17.251702724359  22.0166666666667 16.5576923076923  24 16.5576923076923  C 25.9833333333333 16.5576923076923  27.6791666666667 17.251702724359  29.0875 18.6397235576923  C 30.4958333333333 20.0277443910256  31.2 21.6991185897436  31.2 23.6538461538462  C 31.2 25.6085737179487  30.4958333333333 27.2799479166667  29.0875 28.66796875  C 27.6791666666667 30.0559895833333  25.9833333333333 30.75  24 30.75  C 22.0166666666667 30.75  20.3208333333333 30.0559895833333  18.9125 28.66796875  C 17.5041666666667 27.2799479166667  16.8 25.6085737179487  16.8 23.6538461538462  C 16.8 21.6991185897436  17.5041666666667 20.0277443910256  18.9125 18.6397235576923  Z M 36 6.30769230769231  L 41.6 6.30769230769231  C 43.3666666666667 6.30769230769231  44.875 6.92367788461538  46.125 8.15564903846154  C 47.375 9.38762019230769  48 10.8741987179487  48 12.6153846153846  L 48 34.6923076923077  C 48 36.4334935897436  47.375 37.9200721153846  46.125 39.1520432692308  C 44.875 40.3840144230769  43.3666666666667 41  41.6 41  L 6.4 41  C 4.63333333333333 41  3.125 40.3840144230769  1.875 39.1520432692308  C 0.625 37.9200721153846  0 36.4334935897436  0 34.6923076923077  L 0 12.6153846153846  C 0 10.8741987179487  0.625 9.38762019230769  1.875 8.15564903846154  C 3.125 6.92367788461538  4.63333333333333 6.30769230769231  6.4 6.30769230769231  L 12 6.30769230769231  L 13.275 2.95673076923077  C 13.5916666666667 2.15184294871795  14.1708333333333 1.45783253205128  15.0125 0.874699519230768  C 15.8541666666667 0.291566506410261  16.7166666666667 0  17.6 0  L 30.4 0  C 31.2833333333333 0  32.1458333333333 0.291566506410261  32.9875 0.874699519230768  C 33.8291666666667 1.45783253205128  34.4083333333333 2.15184294871795  34.725 2.95673076923077  L 36 6.30769230769231  Z M 16.0875 31.4522235576923  C 18.2791666666667 33.6122796474359  20.9166666666667 34.6923076923077  24 34.6923076923077  C 27.0833333333333 34.6923076923077  29.7208333333333 33.6122796474359  31.9125 31.4522235576923  C 34.1041666666667 29.2921674679487  35.2 26.6927083333333  35.2 23.6538461538462  C 35.2 20.614983974359  34.1041666666667 18.0155248397436  31.9125 15.85546875  C 29.7208333333333 13.6954126602564  27.0833333333333 12.6153846153846  24 12.6153846153846  C 20.9166666666667 12.6153846153846  18.2791666666667 13.6954126602564  16.0875 15.85546875  C 13.8958333333333 18.0155248397436  12.8 20.614983974359  12.8 23.6538461538462  C 12.8 26.6927083333333  13.8958333333333 29.2921674679487  16.0875 31.4522235576923  Z " fill-rule="nonzero" fill="#ffffff" stroke="none" transform="matrix(1 0 0 1 166 1644 )" />
  </g>
</svg>