<?xml version="1.0" encoding="utf-8"?>
<svg version="1.1" xmlns:xlink="http://www.w3.org/1999/xlink" width="18px" height="18px" xmlns="http://www.w3.org/2000/svg">
  <g transform="matrix(1 0 0 1 -1166 -3813 )">
    <path d="M 8.16426005388681 17.8940669039461  C 13.4586418521106 17.8940669039462  17.9132870970961 13.4921997139341  17.9132870970961 7.96602689906751  C 17.9132870970961 2.70374435906818  13.6584722083624 0.0249254343656023  9.94028041113662 0.0249254343656023  C 4.64589861291291 0.0249254343656023  0.189008083025635 4.42679262437768  0.189008083025635 9.98401135393448  C 0.189008083025635 15.2130304139086  4.45504939626783 17.8940669039461  8.16426005388681 17.8940669039461  Z M 1.73151881049796 9.95296543924424  L 1.73151881049796 9.96183570058433  C 1.73151881049796 4.23608200556607  6.38823969663706 1.42199159542738  9.73820476998303 1.42199159542738  C 12.881603632372 1.42199159542738  16.4067009280511 3.53976649037022  16.4067009280511 8.00816064043287  C 16.4067009280511 13.7006508554258  11.7477347570103 16.5125237002295  8.36409041013873 16.5125237002295  C 5.21620097794629 16.5036534388895  1.73151881049796 14.3858785439466  1.73151881049796 9.95296543924424  Z " fill-rule="nonzero" fill="#ffffff" stroke="none" transform="matrix(1 0 0 1 1166 3813 )" />
  </g>
</svg>