<?xml version="1.0" encoding="utf-8"?>
<svg version="1.1" xmlns:xlink="http://www.w3.org/1999/xlink" width="20px" height="24px" xmlns="http://www.w3.org/2000/svg">
  <g transform="matrix(1 0 0 1 -1207 -3806 )">
    <path d="M 19.7933076172222 0.0685449445054473  L 18.2173068739555 0.0685449445054221  L 17.0886425862012 10.3270021843019  L 16.9510005998897 10.3270021843019  C 16.0953262516532 7.81228309439066  13.3218402274764 6.02492543436563  9.79591134479663 6.02492543436563  C 4.38887531585973 6.02492543436563  0.142620038149833 10.3270021843019  0.142620038149833 15.8864384791937  C 0.142620038149833 21.2085952832385  4.04247631697578 23.8940669039462  8.25661513121299 23.8940669039462  C 11.4534729776033 23.92770335825  14.4169230089411 22.2800731698611  15.9943887950247 19.5919901540099  L 16.0953262516532 19.5919901540099  L 15.6846943258239 23.5636496690284  L 17.2698712015113 23.5636496690284  L 19.7933076172222 0.0685449445054473  Z M 8.49519457415289 22.4703899588642  L 8.49519457415289 22.4659548281941  C 4.82474160584613 22.4659548281941  1.75303127799437 20.2483894931754  1.75303127799437 15.7822129084478  C 1.75303127799437 11.1253257049086  5.31337065725192 7.44194968344256  9.96796382768595 7.44194968344256  C 13.6384167959928 7.44194968344256  16.7468316535276 9.65951501846124  16.7468316535276 14.1279091685239  C 16.7468316535276 18.7981017640732  13.1520817776921 22.4703899588642  8.49519457415289 22.4703899588642  Z " fill-rule="nonzero" fill="#ffffff" stroke="none" transform="matrix(1 0 0 1 1207 3806 )" />
  </g>
</svg>