<?xml version="1.0" encoding="utf-8"?>
<svg version="1.1" xmlns:xlink="http://www.w3.org/1999/xlink" width="18px" height="18px" xmlns="http://www.w3.org/2000/svg">
  <g transform="matrix(1 0 0 1 -1186 -3943 )">
    <path d="M 17.9578909606283 7.96159176839745  C 17.9669857855466 2.70374435906818  13.6583124804998 0.0204903036955607  9.88396013940345 0.0204903036955607  C 4.52256085006298 0.0204903036955607  0.00925398435434614 4.42235749370766  0.00925398435434614 9.97957622326447  C 0.00925398435434614 15.2085952832385  4.32929582054897 17.8896317732761  8.08545851180875 17.8896317732761  C 13.4468578011492 17.8896317732761  17.9578909606283 13.487764583264  17.9578909606283 7.96159176839745  Z M 8.29236577870021 16.5036534388895  L 8.29236577870021 16.4992183082194  C 5.10917705729363 16.4992183082194  1.57583757653234 14.3814434132765  1.57583757653234 9.9485303085742  C 1.57583757653234 4.22277661355594  6.29150429667319 1.40868620341726  9.68387399120082 1.40868620341726  C 12.8670627126073 1.40868620341726  16.4367814930419 3.5264610983601  16.4367814930419 7.99485524842275  C 16.441328905501 13.6917805940857  11.7256621853601 16.5036534388895  8.29236577870021 16.5036534388895  Z " fill-rule="nonzero" fill="#ffffff" stroke="none" transform="matrix(1 0 0 1 1186 3943 )" />
  </g>
</svg>