<?xml version="1.0" encoding="utf-8"?>
<svg version="1.1" xmlns:xlink="http://www.w3.org/1999/xlink" width="25px" height="9px" xmlns="http://www.w3.org/2000/svg">
  <g transform="matrix(1 0 0 1 -1171 -3965 )">
    <path d="M 24.604436877248 2.7362752505453  C 25.1585201550912 1.98337524790743  24.9776467606181 0.937986330604892  24.2004180601269 0.401178952770631  C 23.4230876739225 -0.135490279197463  22.3437775823123 0.03969852287798  21.7895516759937 0.792500035639433  C 19.6494040990606 3.71271411091916  16.1812061956048 5.4477017112202  12.4838723636116 5.44772406517742  C 8.7891525171539 5.44180188681962  5.32454757559566 3.70899672063239  3.18040080432857 0.794638402212501  C 2.85607029646429 0.353185596033122  2.33124968369798 0.0910188522759126  1.77185432715187 0.0910188522759126  C 0.817080595080738 0.0910188522759126  0.0430835574290372 0.84069026874425  0.0430835574290372 1.76545682637889  C 0.0430835574290372 2.11342962703913  0.155011053930521 2.45275827356523  0.363307849975232 2.7362752505453  C 3.15687990325001 6.53266006144405  7.67065791292824 8.78949268810352  12.4838723636116 8.79640611857957  C 17.2983385537846 8.79447415042556  21.8143324606587 6.5365336028453  24.604436877248 2.7362752505453  Z " fill-rule="nonzero" fill="#ffffff" stroke="none" transform="matrix(1 0 0 1 1171 3965 )" />
  </g>
</svg>