<?xml version="1.0" encoding="utf-8"?>
<svg version="1.1" xmlns:xlink="http://www.w3.org/1999/xlink" width="21px" height="8px" xmlns="http://www.w3.org/2000/svg">
  <g transform="matrix(1 0 0 1 -1070 -3930 )">
    <path d="M 0.164207035340933 6.57907800848966  C 0.164207035340933 7.04630656445225  0.430094343213792 7.47845569330057  0.86268835445564 7.71432623070499  C 1.0792859767793 7.83294667178945  1.3259301729457 7.89548861773465  1.5771312879017 7.89548861773465  C 2.07757786813913 7.89548861773465  2.54055943360058 7.64827389700427  2.79379432224588 7.24583637519103  C 3.107515987773 6.74200419696517  3.4647229891325 6.26282711357682  3.86187393570279 5.81305574083897  C 5.66453994997603 3.76052395233167  8.0530724188881 2.63236676663217  10.572298173835 2.63236676663217  C 13.630070400546 2.63236676663217  16.5368693485616 4.35506489004668  18.3530553579419 7.24373552382102  C 18.60318653052 7.65688700577775  19.0726020824065 7.91241049396651  19.5814607478671 7.91241049396651  C 20.3605059702416 7.91241049396651  20.9920469040359 7.32360541283493  20.9920469040359 6.59727753633543  C 20.9920469040359 6.35623961639723  20.9209954598279 6.11983751164355  20.7866544772108 5.91389660659982  C 18.4612153187983 2.21219649262863  14.6418167010568 0  10.5722981738349 0  C 7.19229939707257 0  4.0376338720944 1.47059595901238  1.68515472346781 4.13657634756485  C 1.19298103338981 4.69532380142763  0.749181485772862 5.28963233689884  0.357941870459139 5.91389660659982  C 0.231082233382373 6.11562218661689  0.164207035340933 6.34523570943909  0.164207035340933 6.57907800848966  Z " fill-rule="nonzero" fill="#ffffff" stroke="none" transform="matrix(1 0 0 1 1070 3930 )" />
  </g>
</svg>