<?xml version="1.0" encoding="utf-8"?>
<svg version="1.1" xmlns:xlink="http://www.w3.org/1999/xlink" width="34px" height="34px" xmlns="http://www.w3.org/2000/svg">
  <g transform="matrix(1 0 0 1 -1134 -3752 )">
    <path d="M 21.0065104166667 21.0065104166667  C 22.11328125 19.8997395833333  22.6666666666667 18.5642361111111  22.6666666666667 17  C 22.6666666666667 15.4357638888889  22.11328125 14.1002604166667  21.0065104166667 12.9934895833333  C 19.8997395833333 11.88671875  18.5642361111111 11.3333333333333  17 11.3333333333333  C 15.4357638888889 11.3333333333333  14.1002604166667 11.88671875  12.9934895833333 12.9934895833333  C 11.88671875 14.1002604166667  11.3333333333333 15.4357638888889  11.3333333333333 17  C 11.3333333333333 18.5642361111111  11.88671875 19.8997395833333  12.9934895833333 21.0065104166667  C 14.1002604166667 22.11328125  15.4357638888889 22.6666666666667  17 22.6666666666667  C 18.5642361111111 22.6666666666667  19.8997395833333 22.11328125  21.0065104166667 21.0065104166667  Z M 23.17578125 10.82421875  C 24.8728298611111 12.5212673611111  25.7213541666667 14.5798611111111  25.7213541666667 17  C 25.7213541666667 19.4201388888889  24.8728298611111 21.4787326388889  23.17578125 23.17578125  C 21.4787326388889 24.8728298611111  19.4201388888889 25.7213541666667  17 25.7213541666667  C 14.5798611111111 25.7213541666667  12.5212673611111 24.8728298611111  10.82421875 23.17578125  C 9.12717013888889 21.4787326388889  8.27864583333333 19.4201388888889  8.27864583333333 17  C 8.27864583333333 14.5798611111111  9.12717013888889 12.5212673611111  10.82421875 10.82421875  C 12.5212673611111 9.12717013888889  14.5798611111111 8.27864583333333  17 8.27864583333333  C 19.4201388888889 8.27864583333333  21.4787326388889 9.12717013888889  23.17578125 10.82421875  Z M 27.5143229166667 6.48567708333333  C 27.9127604166667 6.88411458333333  28.1119791666667 7.36371527777778  28.1119791666667 7.92447916666667  C 28.1119791666667 8.48524305555556  27.9127604166667 8.96484375  27.5143229166667 9.36328125  C 27.1158854166667 9.76171875  26.6362847222222 9.9609375  26.0755208333333 9.9609375  C 25.5147569444444 9.9609375  25.03515625 9.76171875  24.63671875 9.36328125  C 24.23828125 8.96484375  24.0390625 8.48524305555556  24.0390625 7.92447916666667  C 24.0390625 7.36371527777778  24.23828125 6.88411458333333  24.63671875 6.48567708333333  C 25.03515625 6.08723958333333  25.5147569444444 5.88802083333333  26.0755208333333 5.88802083333333  C 26.6362847222222 5.88802083333333  27.1158854166667 6.08723958333333  27.5143229166667 6.48567708333333  Z M 18.693359375 3.04361979166667  C 17.6677517361111 3.05099826388889  17.1032986111111 3.0546875  17 3.0546875  C 16.8967013888889 3.0546875  16.3322482638889 3.05099826388889  15.306640625 3.04361979166667  C 14.2810329861111 3.03624131944444  13.5026041666667 3.03624131944444  12.9713541666667 3.04361979166667  C 12.4401041666667 3.05099826388889  11.7280815972222 3.07313368055556  10.8352864583333 3.11002604166667  C 9.94249131944445 3.14691840277778  9.18250868055556 3.220703125  8.55533854166667 3.33138020833333  C 7.92816840277778 3.44205729166667  7.40060763888889 3.57855902777778  6.97265625 3.74088541666667  C 6.23480902777778 4.03602430555556  5.58550347222222 4.46397569444444  5.02473958333333 5.02473958333333  C 4.46397569444444 5.58550347222222  4.03602430555556 6.23480902777778  3.74088541666667 6.97265625  C 3.57855902777778 7.40060763888889  3.44205729166667 7.92816840277778  3.33138020833333 8.55533854166667  C 3.220703125 9.18250868055556  3.14691840277778 9.94249131944444  3.11002604166667 10.8352864583333  C 3.07313368055556 11.7280815972222  3.05099826388889 12.4401041666667  3.04361979166667 12.9713541666667  C 3.03624131944444 13.5026041666667  3.03624131944444 14.2810329861111  3.04361979166667 15.306640625  C 3.05099826388889 16.3322482638889  3.0546875 16.8967013888889  3.0546875 17  C 3.0546875 17.1032986111111  3.05099826388889 17.6677517361111  3.04361979166667 18.693359375  C 3.03624131944444 19.7189670138889  3.03624131944444 20.4973958333333  3.04361979166667 21.0286458333333  C 3.05099826388889 21.5598958333333  3.07313368055556 22.2719184027778  3.11002604166667 23.1647135416667  C 3.14691840277778 24.0575086805556  3.220703125 24.8174913194444  3.33138020833333 25.4446614583333  C 3.44205729166667 26.0718315972222  3.57855902777778 26.5993923611111  3.74088541666667 27.02734375  C 4.03602430555556 27.7651909722222  4.46397569444444 28.4144965277778  5.02473958333333 28.9752604166667  C 5.58550347222222 29.5360243055556  6.23480902777778 29.9639756944444  6.97265625 30.2591145833333  C 7.40060763888889 30.4214409722222  7.92816840277778 30.5579427083333  8.55533854166667 30.6686197916667  C 9.18250868055556 30.779296875  9.94249131944445 30.8530815972222  10.8352864583333 30.8899739583333  C 11.7280815972222 30.9268663194444  12.4401041666667 30.9490017361111  12.9713541666667 30.9563802083333  C 13.5026041666667 30.9637586805556  14.2810329861111 30.9637586805556  15.306640625 30.9563802083333  C 16.3322482638889 30.9490017361111  16.8967013888889 30.9453125  17 30.9453125  C 17.1032986111111 30.9453125  17.6677517361111 30.9490017361111  18.693359375 30.9563802083333  C 19.7189670138889 30.9637586805556  20.4973958333333 30.9637586805556  21.0286458333333 30.9563802083333  C 21.5598958333333 30.9490017361111  22.2719184027778 30.9268663194444  23.1647135416667 30.8899739583333  C 24.0575086805556 30.8530815972222  24.8174913194444 30.779296875  25.4446614583333 30.6686197916667  C 26.0718315972222 30.5579427083333  26.5993923611111 30.4214409722222  27.02734375 30.2591145833333  C 27.7651909722222 29.9639756944444  28.4144965277778 29.5360243055556  28.9752604166667 28.9752604166667  C 29.5360243055556 28.4144965277778  29.9639756944444 27.7651909722222  30.2591145833333 27.02734375  C 30.4214409722222 26.5993923611111  30.5579427083333 26.0718315972222  30.6686197916667 25.4446614583333  C 30.779296875 24.8174913194444  30.8530815972222 24.0575086805556  30.8899739583333 23.1647135416667  C 30.9268663194444 22.2719184027778  30.9490017361111 21.5598958333333  30.9563802083333 21.0286458333333  C 30.9637586805556 20.4973958333333  30.9637586805556 19.7189670138889  30.9563802083333 18.693359375  C 30.9490017361111 17.6677517361111  30.9453125 17.1032986111111  30.9453125 17  C 30.9453125 16.8967013888889  30.9490017361111 16.3322482638889  30.9563802083333 15.306640625  C 30.9637586805556 14.2810329861111  30.9637586805556 13.5026041666667  30.9563802083333 12.9713541666667  C 30.9490017361111 12.4401041666667  30.9268663194444 11.7280815972222  30.8899739583333 10.8352864583333  C 30.8530815972222 9.94249131944444  30.779296875 9.18250868055556  30.6686197916667 8.55533854166667  C 30.5579427083333 7.92816840277778  30.4214409722222 7.40060763888889  30.2591145833333 6.97265625  C 29.9639756944444 6.23480902777778  29.5360243055556 5.58550347222222  28.9752604166667 5.02473958333333  C 28.4144965277778 4.46397569444444  27.7651909722222 4.03602430555556  27.02734375 3.74088541666667  C 26.5993923611111 3.57855902777778  26.0718315972222 3.44205729166667  25.4446614583333 3.33138020833333  C 24.8174913194444 3.220703125  24.0575086805556 3.14691840277778  23.1647135416667 3.11002604166667  C 22.2719184027778 3.07313368055556  21.5598958333333 3.05099826388889  21.0286458333333 3.04361979166667  C 20.4973958333333 3.03624131944444  19.7189670138889 3.03624131944444  18.693359375 3.04361979166667  Z M 33.8893229166667 9.98307291666667  C 33.9631076388889 11.2816840277778  34 13.6206597222222  34 17  C 34 20.3793402777778  33.9631076388889 22.7183159722222  33.8893229166667 24.0169270833333  C 33.7417534722222 27.0863715277778  32.8268229166667 29.4622395833333  31.14453125 31.14453125  C 29.4622395833333 32.8268229166667  27.0863715277778 33.7417534722222  24.0169270833333 33.8893229166667  C 22.7183159722222 33.9631076388889  20.3793402777778 34  17 34  C 13.6206597222222 34  11.2816840277778 33.9631076388889  9.98307291666667 33.8893229166667  C 6.91362847222222 33.7417534722222  4.53776041666667 32.8268229166667  2.85546875 31.14453125  C 1.17317708333333 29.4622395833333  0.258246527777778 27.0863715277778  0.110677083333333 24.0169270833333  C 0.0368923611111111 22.7183159722222  0 20.3793402777778  0 17  C 0 13.6206597222222  0.0368923611111111 11.2816840277778  0.110677083333333 9.98307291666667  C 0.258246527777778 6.91362847222222  1.17317708333333 4.53776041666667  2.85546875 2.85546875  C 4.53776041666667 1.17317708333333  6.91362847222222 0.258246527777776  9.98307291666667 0.110677083333335  C 11.2816840277778 0.0368923611111065  13.6206597222222 0  17 0  C 20.3793402777778 0  22.7183159722222 0.0368923611111065  24.0169270833333 0.110677083333335  C 27.0863715277778 0.258246527777776  29.4622395833333 1.17317708333333  31.14453125 2.85546875  C 32.8268229166667 4.53776041666667  33.7417534722222 6.91362847222222  33.8893229166667 9.98307291666667  Z " fill-rule="nonzero" fill="#ffffff" stroke="none" transform="matrix(1 0 0 1 1134 3752 )" />
  </g>
</svg>