<?xml version="1.0" encoding="utf-8"?>
<svg version="1.1" xmlns:xlink="http://www.w3.org/1999/xlink" width="39px" height="33px" xmlns="http://www.w3.org/2000/svg">
  <g transform="matrix(1 0 0 1 -299 -28 )">
    <path d="M 38.517578125 26.88984375  C 38.8391927083333 27.21640625  39 27.603125  39 28.05  L 39 31.35  C 39 31.796875  38.8391927083333 32.18359375  38.517578125 32.51015625  C 38.1959635416667 32.83671875  37.8151041666667 33  37.375 33  L 1.625 33  C 1.18489583333333 33  0.804036458333333 32.83671875  0.482421875 32.51015625  C 0.160807291666667 32.18359375  0 31.796875  0 31.35  L 0 28.05  C 0 27.603125  0.160807291666667 27.21640625  0.482421875 26.88984375  C 0.804036458333333 26.56328125  1.18489583333333 26.4  1.625 26  L 37.375 26  C 37.8151041666667 26.4  38.1959635416667 26.56328125  38.517578125 26.88984375  Z M 38.517578125 13.68984375  C 38.8391927083333 14.01640625  39 14.403125  39 14.85  L 39 18.15  C 39 18.596875  38.8391927083333 18.98359375  38.517578125 19.31015625  C 38.1959635416667 19.63671875  37.8151041666667 19.8  37.375 19.8  L 1.625 19.8  C 1.18489583333333 19.8  0.804036458333333 19.63671875  0.482421875 19.31015625  C 0.160807291666667 18.98359375  0 18.596875  0 18.15  L 0 14.85  C 0 14.403125  0.160807291666667 14.01640625  0.482421875 13.68984375  C 0.804036458333333 13.36328125  1.18489583333333 13.2  1.625 13.2  L 37.375 13.2  C 37.8151041666667 13.2  38.1959635416667 13.36328125  38.517578125 13.68984375  Z M 38.517578125 0.489843750000001  C 38.8391927083333 0.816406249999998  39 1.203125  39 1.65  L 39 4.95  C 39 5.396875  38.8391927083333 5.78359375  38.517578125 6.11015625  C 38.1959635416667 6.43671875  37.8151041666667 6.6  37.375 7  L 1.625 7  C 1.18489583333333 6.6  0.804036458333333 6.43671875  0.482421875 6.11015625  C 0.160807291666667 5.78359375  0 5.396875  0 4.95  L 0 1.65  C 0 1.203125  0.160807291666667 0.816406249999998  0.482421875 0.489843750000001  C 0.804036458333333 0.163281249999998  1.18489583333333 0  1.625 0  L 37.375 0  C 37.8151041666667 0  38.1959635416667 0.163281249999998  38.517578125 0.489843750000001  Z " fill-rule="nonzero" fill="#ffffff" stroke="none" transform="matrix(1 0 0 1 299 28 )" />
  </g>
</svg>