<?xml version="1.0" encoding="utf-8"?>
<svg version="1.1" xmlns:xlink="http://www.w3.org/1999/xlink" width="98px" height="98px" xmlns="http://www.w3.org/2000/svg">
  <g transform="matrix(1 0 0 1 -634 -3218 )">
    <path d="M 97.7911931818182 75.9360795454545  C 97.9303977272727 76.2608901515151  98 76.748106060606  98 77.3977272727273  C 98 78.6505681818182  97.7679924242424 80.2862215909091  97.3039772727273 82.3046875  C 96.8399621212121 84.3231534090909  96.3527462121212 85.9124053030303  95.8423295454545 87.0724431818182  C 94.8678977272727 89.3925189393939  92.0374053030303 91.8517992424242  87.3508522727273 94.4502840909091  C 82.9891098484849 96.8167613636364  78.673768939394 98  74.4048295454545 98  C 73.1519886363636 98  71.9223484848485 97.9187973484848  70.7159090909091 97.7563920454545  C 69.5094696969697 97.5939867424242  68.1754261363637 97.3039772727273  66.7137784090909 96.8863636363636  C 65.2521306818182 96.46875  64.1616950757576 96.1323390151515  63.4424715909091 95.8771306818182  C 62.7232481060606 95.6219223484848  61.4356060606061 95.1463068181818  59.5795454545455 94.4502840909091  C 57.7234848484849 93.7542613636364  56.5866477272727 93.3366477272727  56.1690340909091 93.1974431818182  C 51.6216856060606 91.5733901515152  47.561553030303 89.6477272727273  43.9886363636364 87.4204545454545  C 38.0956439393939 83.7547348484848  31.9706439393939 78.7433712121212  25.6136363636364 72.3863636363636  C 19.2566287878788 66.029356060606  14.2452651515152 59.9043560606061  10.5795454545455 54.0113636363636  C 8.35227272727273 50.438446969697  6.42660984848485 46.3783143939394  4.80255681818182 41.8309659090909  C 4.66335227272727 41.4133522727273  4.24573863636364 40.2765151515151  3.54971590909091 38.4204545454545  C 2.85369318181818 36.5643939393939  2.37807765151515 35.2767518939394  2.12286931818182 34.5575284090909  C 1.86766098484848 33.8383049242424  1.53125 32.7478693181818  1.11363636363636 31.2862215909091  C 0.696022727272727 29.8245738636364  0.406013257575758 28.4905303030303  0.243607954545455 27.2840909090909  C 0.0812026515151515 26.0776515151515  0 24.8480113636364  0 23.5951704545455  C 0 19.3262310606061  1.18323863636364 15.0108901515151  3.54971590909091 10.6491477272727  C 6.14820075757576 5.96259469696968  8.60748106060606 3.13210227272727  10.9275568181818 2.15767045454545  C 12.0875946969697 1.64725378787878  13.6768465909091 1.16003787878787  15.6953125 0.696022727272725  C 17.7137784090909 0.232007575757571  19.3494318181818 0  20.6022727272727 0  C 21.2518939393939 0  21.7391098484849 0.0696022727272747  22.0639204545455 0.208806818181813  C 22.8991477272727 0.487215909090912  24.1287878787879 2.25047348484848  25.7528409090909 5.49857954545455  C 26.2632575757576 6.38020833333332  26.9592803030303 7.63304924242423  27.8409090909091 9.25710227272728  C 28.7225378787879 10.8811553030303  29.5345643939394 12.3544034090909  30.2769886363636 13.6768465909091  C 31.0194128787879 14.9992897727273  31.7386363636364 16.2405303030303  32.4346590909091 17.4005681818182  C 32.5738636363636 17.5861742424242  32.9798768939394 18.1661931818182  33.6526988636364 19.140625  C 34.3255208333333 20.1150568181818  34.8243371212121 20.9386837121212  35.1491477272727 21.6115056818182  C 35.4739583333333 22.2843276515151  35.6363636363636 22.9455492424242  35.6363636363636 23.5951704545455  C 35.6363636363636 24.5232007575757  34.9751420454545 25.6832386363636  33.6526988636364 27.0752840909091  C 32.3302556818182 28.4673295454546  30.8918087121212 29.7433712121212  29.3373579545455 30.9034090909091  C 27.7829071969697 32.063446969697  26.3444602272727 33.2930871212121  25.0220170454545 34.5923295454545  C 23.6995738636364 35.891571969697  23.0383522727273 36.9588068181818  23.0383522727273 37.7940340909091  C 23.0383522727273 38.2116477272727  23.1543560606061 38.7336647727273  23.3863636363636 39.3600852272727  C 23.6183712121212 39.9865056818182  23.8155776515152 40.4621212121212  23.9779829545455 40.7869318181818  C 24.1403882575758 41.1117424242424  24.4651988636364 41.6685606060606  24.9524147727273 42.4573863636364  C 25.4396306818182 43.2462121212121  25.7064393939394 43.6870265151515  25.7528409090909 43.7798295454545  C 29.2793560606061 50.1368371212121  33.3162878787879 55.5890151515151  37.8636363636364 60.1363636363636  C 42.4109848484849 64.6837121212121  47.8631628787879 68.7206439393939  54.2201704545455 72.2471590909091  C 54.3129734848485 72.2935606060606  54.7537878787879 72.5603693181818  55.5426136363636 73.0475852272727  C 56.3314393939394 73.5348011363636  56.8882575757576 73.8596117424242  57.2130681818182 74.0220170454545  C 57.5378787878788 74.1844223484848  58.0134943181818 74.3816287878788  58.6399147727273 74.6136363636364  C 59.2663352272727 74.8456439393939  59.7883522727273 74.9616477272727  60.2059659090909 74.9616477272727  C 61.0411931818182 74.9616477272727  62.108428030303 74.3004261363636  63.4076704545455 72.9779829545455  C 64.7069128787879 71.6555397727273  65.936553030303 70.2170928030303  67.0965909090909 68.6626420454545  C 68.2566287878788 67.1081912878788  69.5326704545455 65.6697443181818  70.9247159090909 64.3473011363636  C 72.3167613636364 63.0248579545455  73.4767992424242 62.3636363636364  74.4048295454545 62.3636363636364  C 75.0544507575758 62.3636363636364  75.7156723484849 62.5260416666667  76.3884943181818 62.8508522727273  C 77.0613162878788 63.1756628787879  77.8849431818182 63.6744791666667  78.859375 64.3473011363636  C 79.8338068181818 65.0201231060606  80.4138257575758 65.4261363636364  80.5994318181818 65.5653409090909  C 81.7594696969697 66.2613636363636  83.0007102272727 66.9805871212121  84.3231534090909 67.7230113636364  C 85.6455965909091 68.4654356060606  87.1188446969697 69.2774621212121  88.7428977272727 70.1590909090909  C 90.3669507575758 71.0407196969697  91.6197916666667 71.7367424242424  92.5014204545455 72.2471590909091  C 95.7495265151515 73.8712121212121  97.5127840909091 75.1008522727273  97.7911931818182 75.9360795454545  Z " fill-rule="nonzero" fill="#2699fb" stroke="none" transform="matrix(1 0 0 1 634 3218 )" />
  </g>
</svg>