<?xml version="1.0" encoding="utf-8"?>
<svg version="1.1" xmlns:xlink="http://www.w3.org/1999/xlink" width="93px" height="93px" xmlns="http://www.w3.org/2000/svg">
  <g transform="matrix(1 0 0 1 -140 -4394 )">
    <path d="M 92.8018465909091 72.0617897727273  C 92.9339488636364 72.3700284090909  93 72.8323863636363  93 73.4488636363636  C 93 74.6377840909091  92.7798295454545 76.1899857954545  92.3394886363636 78.10546875  C 91.8991477272727 80.0209517045455  91.4367897727273 81.5291193181818  90.9524147727273 82.6299715909091  C 90.0276988636364 84.8316761363636  87.3416193181818 87.1654829545455  82.8941761363636 89.6313920454545  C 78.7549715909091 91.8771306818182  74.6598011363636 93  70.6086647727273 93  C 69.4197443181818 93  68.2528409090909 92.9229403409091  67.1079545454545 92.7688210227273  C 65.9630681818182 92.6147017045455  64.6970880681818 92.3394886363636  63.3100142045455 91.9431818181818  C 61.9229403409091 91.546875  60.8881392045455 91.2276278409091  60.2056107954545 90.9854403409091  C 59.5230823863636 90.7432528409091  58.3011363636364 90.2919034090909  56.5397727272727 89.6313920454545  C 54.7784090909091 88.9708806818182  53.6995738636364 88.5745738636364  53.3032670454545 88.4424715909091  C 48.9879261363636 86.9012784090909  45.1349431818182 85.0738636363636  41.7443181818182 82.9602272727273  C 36.1519886363636 79.4815340909091  30.3394886363636 74.7258522727273  24.3068181818182 68.6931818181818  C 18.2741477272727 62.6605113636363  13.5184659090909 56.8480113636364  10.0397727272727 51.2556818181818  C 7.92613636363636 47.8650568181818  6.09872159090909 44.0120738636364  4.55752840909091 39.6967329545455  C 4.42542613636364 39.3004261363636  4.02911931818182 38.2215909090909  3.36860795454545 36.4602272727273  C 2.70809659090909 34.6988636363636  2.25674715909091 33.4769176136364  2.01455965909091 32.7943892045455  C 1.77237215909091 32.1118607954545  1.453125 31.0770596590909  1.05681818181818 29.6899857954545  C 0.660511363636364 28.3029119318182  0.385298295454546 27.0369318181818  0.231178977272727 25.8920454545455  C 0.0770596590909091 24.7471590909091  0 23.5802556818182  0 22.3913352272727  C 0 18.3401988636364  1.12286931818182 14.2450284090909  3.36860795454545 10.1058238636364  C 5.83451704545455 5.65838068181817  8.16832386363636 2.97230113636364  10.3700284090909 2.04758522727272  C 11.4708806818182 1.56321022727272  12.9790482954545 1.10085227272726  14.89453125 0.660511363636362  C 16.8100142045455 0.22017045454545  18.3622159090909 0  19.5511363636364 0  C 20.1676136363636 0  20.6299715909091 0.0660511363636382  20.9382102272727 0.198153409090904  C 21.7308238636364 0.462357954545457  22.8977272727273 2.13565340909091  24.4389204545455 5.21803977272728  C 24.9232954545455 6.05468749999999  25.5838068181818 7.24360795454544  26.4204545454545 8.78480113636364  C 27.2571022727273 10.3259943181818  28.0276988636364 11.7240767045455  28.7322443181818 12.9790482954545  C 29.4367897727273 14.2340198863636  30.1193181818182 15.4119318181818  30.7798295454545 16.5127840909091  C 30.9119318181818 16.6889204545454  31.2972301136364 17.2393465909091  31.9357244318182 18.1640625  C 32.57421875 19.0887784090909  33.0475852272727 19.8703835227273  33.3558238636364 20.5088778409091  C 33.6640625 21.1473721590909  33.8181818181818 21.7748579545454  33.8181818181818 22.3913352272727  C 33.8181818181818 23.2720170454545  33.1906960227273 24.3728693181818  31.9357244318182 25.6938920454545  C 30.6807528409091 27.0149147727273  29.3156960227273 28.2258522727273  27.8405539772727 29.3267045454545  C 26.3654119318182 30.4275568181818  25.0003551136364 31.5944602272727  23.7453835227273 32.8274147727273  C 22.4904119318182 34.0603693181818  21.8629261363636 35.0731534090909  21.8629261363636 35.8657670454545  C 21.8629261363636 36.2620738636364  21.9730113636364 36.7574573863636  22.1931818181818 37.3519176136364  C 22.4133522727273 37.9463778409091  22.6004971590909 38.3977272727273  22.7546164772727 38.7059659090909  C 22.9087357954546 39.0142045454545  23.2169744318182 39.5426136363636  23.6793323863636 40.2911931818182  C 24.1416903409091 41.0397727272727  24.3948863636364 41.4580965909091  24.4389204545455 41.5461647727273  C 27.7855113636364 47.5788352272727  31.6164772727273 52.7528409090909  35.9318181818182 57.0681818181818  C 40.2471590909091 61.3835227272727  45.4211647727273 65.2144886363636  51.4538352272727 68.5610795454545  C 51.5419034090909 68.6051136363636  51.9602272727273 68.8583096590909  52.7088068181818 69.3206676136364  C 53.4573863636364 69.7830255681818  53.9857954545455 70.0912642045454  54.2940340909091 70.2453835227273  C 54.6022727272727 70.3995028409091  55.0536221590909 70.5866477272727  55.6480823863636 70.8068181818182  C 56.2425426136364 71.0269886363636  56.7379261363636 71.1370738636364  57.1342329545455 71.1370738636364  C 57.9268465909091 71.1370738636364  58.9396306818182 70.5095880681818  60.1725852272727 69.2546164772727  C 61.4055397727273 67.9996448863636  62.5724431818182 66.6345880681818  63.6732954545455 65.1594460227273  C 64.7741477272727 63.6843039772727  65.9850852272727 62.3192471590909  67.3061079545455 61.0642755681818  C 68.6271306818182 59.8093039772727  69.7279829545455 59.1818181818182  70.6086647727273 59.1818181818182  C 71.2251420454546 59.1818181818182  71.8526278409091 59.3359375  72.4911221590909 59.6441761363636  C 73.1296164772727 59.9524147727273  73.9112215909091 60.42578125  74.8359375 61.0642755681818  C 75.7606534090909 61.7027698863636  76.3110795454546 62.0880681818182  76.4872159090909 62.2201704545454  C 77.5880681818182 62.8806818181818  78.7659801136364 63.5632102272727  80.0209517045455 64.2677556818182  C 81.2759232954545 64.9723011363636  82.6740056818182 65.7428977272727  84.2151988636364 66.5795454545455  C 85.7563920454546 67.4161931818182  86.9453125 68.0767045454545  87.7819602272727 68.5610795454545  C 90.8643465909091 70.1022727272727  92.5376420454545 71.2691761363636  92.8018465909091 72.0617897727273  Z " fill-rule="nonzero" fill="#2699fb" stroke="none" transform="matrix(1 0 0 1 140 4394 )" />
  </g>
</svg>