<?xml version="1.0" encoding="utf-8"?>
<svg version="1.1" xmlns:xlink="http://www.w3.org/1999/xlink" width="36px" height="36px" xmlns="http://www.w3.org/2000/svg">
  <g transform="matrix(1 0 0 1 -1296 -27 )">
    <path d="M 36 18  C 36 8.064  27.936 0  17.982 0  C 8.046 0  0 8.064  0 18  C 0 27.936  8.046 36  17.982 36  C 27.936 36  36 27.936  36 18  Z M 22.662 4.392  C 25.974 5.526  28.728 7.83  30.456 10.8  L 25.146 10.8  C 24.57 8.55  23.742 6.39  22.662 4.392  Z M 14.562 10.8  C 15.336 8.226  16.506 5.832  18 3.672  C 19.494 5.832  20.664 8.226  21.438 10.8  L 14.562 10.8  Z M 10.152 21.6  L 4.068 21.6  C 3.78 20.448  3.6 19.242  3.6 18  C 3.6 16.758  3.78 15.552  4.068 14.4  L 10.152 14.4  C 10.008 15.588  9.9 16.776  9.9 18  C 9.9 19.224  10.008 20.412  10.152 21.6  Z M 13.338 31.608  C 10.026 30.474  7.272 28.188  5.544 25.2  L 10.854 25.2  C 11.43 27.45  12.258 29.61  13.338 31.608  Z M 13.338 4.392  C 12.258 6.39  11.43 8.55  10.854 10.8  L 5.544 10.8  C 7.272 7.812  10.026 5.526  13.338 4.392  Z M 21.438 25.2  C 20.664 27.774  19.494 30.168  18 32.328  C 16.506 30.168  15.336 27.774  14.562 25.2  L 21.438 25.2  Z M 22.5 18  C 22.5 19.224  22.374 20.412  22.212 21.6  L 13.788 21.6  C 13.626 20.412  13.5 19.224  13.5 18  C 13.5 16.776  13.626 15.57  13.788 14.4  L 22.212 14.4  C 22.374 15.57  22.5 16.776  22.5 18  Z M 30.456 25.2  C 28.728 28.17  25.974 30.474  22.662 31.608  C 23.742 29.61  24.57 27.45  25.146 25.2  L 30.456 25.2  Z M 31.932 21.6  L 25.848 21.6  C 25.992 20.412  26.1 19.224  26.1 18  C 26.1 16.776  25.992 15.588  25.848 14.4  L 31.932 14.4  C 32.22 15.552  32.4 16.758  32.4 18  C 32.4 19.242  32.22 20.448  31.932 21.6  Z " fill-rule="nonzero" fill="#ffffff" stroke="none" transform="matrix(1 0 0 1 1296 27 )" />
  </g>
</svg>