<?xml version="1.0" encoding="utf-8"?>
<svg version="1.1" xmlns:xlink="http://www.w3.org/1999/xlink" width="99px" height="77px" xmlns="http://www.w3.org/2000/svg">
  <g transform="matrix(1 0 0 1 -248 -3218 )">
    <path d="M 91.4037388392857 69.48046875  C 91.7536272321429 69.1341145833333  91.9285714285714 68.7239583333333  92 68.25  L 92 26.25  C 90.75 27.5625  89.4793526785714 28.765625  88.1166294642857 29.859375  C 78.24609375 37.3697916666667  70.4012276785714 43.53125  64.58203125 48.34375  C 62.7036830357143 49.9114583333333  61.1752232142857 51.1328125  59.9966517857143 52.0078125  C 58.8180803571429 52.8828125  57.2251674107143 53.7669270833333  55.2179129464286 54.66015625  C 53.2106584821429 55.5533854166667  51.3231026785714 56  49.5552455357143 56  L 49.5 56  L 49.4447544642857 56  C 47.6768973214286 56  45.7893415178571 55.5533854166667  43.7820870535714 54.66015625  C 41.7748325892857 53.7669270833333  40.1819196428571 52.8828125  39.0033482142857 52.0078125  C 37.8247767857143 51.1328125  36.2963169642857 49.9114583333333  34.41796875 48.34375  C 28.5987723214286 43.53125  20.75390625 37.3697916666667  10.8833705357143 29.859375  C 9.52064732142857 28.765625  8.25 27.5625  7 26.25  L 7 68.25  C 7.07142857142857 68.7239583333333  7.24637276785714 69.1341145833333  7.59626116071429 69.48046875  C 7.94614955357143 69.8268229166667  8.36049107142857 70  8.83928571428572 70  L 90.1607142857143 70  C 90.6395089285714 70  91.0538504464286 69.8268229166667  91.4037388392857 69.48046875  Z M 89.3596540178572 17.96484375  C 91.072265625 15.3216145833333  91.9285714285714 12.9244791666667  91.9285714285714 10.7734375  L 91.9285714285714 10.171875  L 91.9285714285714 9.43359375  C 91.9285714285714 9.43359375  91.9193638392857 9.19661458333332  91.9009486607143 8.72265625  C 91.8825334821429 8.24869791666666  91.8272879464286 8.02083333333332  91.7352120535714 8.0390625  C 91.6431361607143 8.05729166666666  91.5418526785714 7.89322916666666  91.4313616071428 7.546875  C 91.3208705357143 7.20052083333332  91.1551339285714 7.06380208333333  90.9341517857143 7.13671875  C 90.7131696428572 7.20963541666667  90.4553571428572 7.1640625  90.1607142857143 7  L 8.83928571428572 7  C 8.36049107142857 7  7.94614955357143 7.17317708333332  7.59626116071429 7.51953125  C 7.24637276785714 7.86588541666666  7.07142857142857 8.27604166666666  7.07142857142857 8.75  C 7.07142857142857 14.875  9.77845982142857 20.0520833333333  15.1925223214286 24.28125  C 22.30078125 29.8229166666667  29.6852678571429 35.6015625  37.3459821428571 41.6171875  C 37.5669642857143 41.7994791666667  38.2114955357143 42.3372395833333  39.2795758928571 43.23046875  C 40.34765625 44.1236979166667  41.1947544642857 44.8072916666667  41.8208705357143 45.28125  C 42.4469866071429 45.7552083333333  43.2664620535714 46.3294270833333  44.279296875 47.00390625  C 45.2921316964286 47.6783854166667  46.2220982142857 48.1796875  47.0691964285714 48.5078125  C 47.9162946428571 48.8359375  48.7081473214286 49  49.4447544642857 49  L 49.5 49  L 49.5552455357143 49  C 50.2918526785714 49  51.0837053571429 48.8359375  51.9308035714286 48.5078125  C 52.7779017857143 48.1796875  53.7078683035714 47.6783854166667  54.720703125 47.00390625  C 55.7335379464286 46.3294270833333  56.5530133928571 45.7552083333333  57.1791294642857 45.28125  C 57.8052455357143 44.8072916666667  58.65234375 44.1236979166667  59.7204241071429 43.23046875  C 60.7885044642857 42.3372395833333  61.4330357142857 41.7994791666667  61.6540178571429 41.6171875  C 69.3147321428571 35.6015625  76.69921875 29.8229166666667  83.8074776785714 24.28125  C 85.7963169642857 22.7135416666667  87.6470424107143 20.6080729166667  89.3596540178572 17.96484375  Z M 96.4034598214286 2.5703125  C 98.1344866071429 4.28385416666666  99 6.34375  99 8.75  L 99 68.25  C 99 70.65625  98.1344866071429 72.7161458333333  96.4034598214286 74.4296875  C 94.6724330357143 76.1432291666667  92.5915178571429 77  90.1607142857143 77  L 8.83928571428572 77  C 6.40848214285714 77  4.32756696428571 76.1432291666667  2.59654017857143 74.4296875  C 0.865513392857143 72.7161458333333  0 70.65625  0 68.25  L 0 8.75  C 0 6.34375  0.865513392857143 4.28385416666666  2.59654017857143 2.5703125  C 4.32756696428571 0.856770833333323  6.40848214285714 0  8.83928571428572 0  L 90.1607142857143 0  C 92.5915178571429 0  94.6724330357143 0.856770833333323  96.4034598214286 2.5703125  Z " fill-rule="nonzero" fill="#2699fb" stroke="none" transform="matrix(1 0 0 1 248 3218 )" />
  </g>
</svg>