<?xml version="1.0" encoding="utf-8"?>
<svg version="1.1" xmlns:xlink="http://www.w3.org/1999/xlink" width="94px" height="73px" xmlns="http://www.w3.org/2000/svg">
  <g transform="matrix(1 0 0 1 -140 -4112 )">
    <path d="M 86.7873883928571 65.87109375  C 87.1196056547619 65.5427320075758  87.2857142857143 65.1538825757576  87 64.7045454545455  L 87 24.8863636363636  C 86.1666666666667 26.1306818181818  84.960193452381 27.2713068181818  83.6662946428571 28.3082386363636  C 74.2942708333333 35.4285037878788  66.8456101190476 41.2698863636364  61.3203125 45.8323863636364  C 59.5368303571429 47.3186553030303  58.0855654761905 48.4765625  56.9665178571429 49.3061079545455  C 55.8474702380952 50.1356534090909  54.3350074404762 50.9738399621212  52.4291294642857 51.8206676136364  C 50.5232514880952 52.6674952651515  48.7310267857143 53.0909090909091  47.0524553571429 53.0909090909091  L 47 53.0909090909091  L 46.9475446428571 53.0909090909091  C 45.2689732142857 53.0909090909091  43.4767485119048 52.6674952651515  41.5708705357143 51.8206676136364  C 39.6649925595238 50.9738399621212  38.1525297619048 50.1356534090909  37.0334821428571 49.3061079545455  C 35.9144345238095 48.4765625  34.4631696428571 47.3186553030303  32.6796875 45.8323863636364  C 27.1543898809524 41.2698863636364  19.7057291666667 35.4285037878788  10.3337053571429 28.3082386363636  C 9.03980654761905 27.2713068181818  7.83333333333333 26.1306818181818  7 24.8863636363636  L 7 64.7045454545455  C 6.71428571428571 65.1538825757576  6.8803943452381 65.5427320075758  7.21261160714286 65.87109375  C 7.54482886904762 66.1994554924242  7.93824404761905 66.3636363636364  8.39285714285714 66  L 85.6071428571429 66  C 86.0617559523809 66.3636363636364  86.4551711309524 66.1994554924242  86.7873883928571 65.87109375  Z M 84.8465401785714 17.0316051136364  C 86.47265625 14.5256865530303  87.2857142857143 12.2530776515152  87.2857142857143 10.2137784090909  L 87.2857142857143 9.64346590909091  L 87.2857142857143 8.94353693181819  C 87.2857142857143 8.94353693181819  87.2769717261905 8.71886837121211  87.2594866071429 8.26953125  C 87.2420014880952 7.82019412878787  87.1895461309524 7.60416666666666  87.1021205357143 7.62144886363636  C 87.0146949404762 7.63873106060606  86.9185267857143 7.48319128787878  86.8136160714286 7.15482954545455  C 86.7087053571429 6.82646780303029  86.5513392857143 6.69685132575757  86.3415178571429 6.76598011363636  C 86.1316964285714 6.83510890151515  85.8869047619048 6.79190340909091  85.6071428571429 7  L 8.39285714285714 7  C 7.93824404761905 6.63636363636364  7.54482886904762 6.80054450757575  7.21261160714286 7.12890625  C 6.8803943452381 7.45726799242424  6.71428571428571 7.84611742424242  6.71428571428571 8.29545454545455  C 6.71428571428571 14.1022727272727  9.28459821428571 19.0104166666667  14.4252232142857 23.0198863636364  C 21.1744791666667 28.2736742424242  28.1860119047619 33.7521306818182  35.4598214285714 39.4552556818182  C 35.6696428571429 39.6280776515151  36.2816220238095 40.1379024621212  37.2957589285714 40.9847301136364  C 38.3098958333333 41.8315577651515  39.1142113095238 42.4796401515151  39.7087053571429 42.9289772727273  C 40.3031994047619 43.3783143939394  41.081287202381 43.9227035984848  42.04296875 44.5621448863636  C 43.0046502976191 45.2015861742424  43.8876488095238 45.6768465909091  44.6919642857143 45.9879261363636  C 45.4962797619048 46.2990056818182  46.2481398809524 46.4545454545455  46.9475446428571 46.4545454545455  L 47 46.4545454545455  L 47.0524553571429 46.4545454545455  C 47.7518601190476 46.4545454545455  48.5037202380952 46.2990056818182  49.3080357142857 45.9879261363636  C 50.1123511904762 45.6768465909091  50.9953497023809 45.2015861742424  51.95703125 44.5621448863636  C 52.9187127976191 43.9227035984848  53.6968005952381 43.3783143939394  54.2912946428571 42.9289772727273  C 54.8857886904762 42.4796401515151  55.6901041666667 41.8315577651515  56.7042410714286 40.9847301136364  C 57.7183779761905 40.1379024621212  58.3303571428571 39.6280776515151  58.5401785714286 39.4552556818182  C 65.8139880952381 33.7521306818182  72.8255208333333 28.2736742424242  79.5747767857143 23.0198863636364  C 81.4631696428571 21.5336174242424  83.2204241071429 19.5375236742424  84.8465401785714 17.0316051136364  Z M 91.5345982142857 2.43678977272727  C 93.1781994047619 4.06131628787878  94 6.01420454545455  94 8.29545454545455  L 94 64.7045454545455  C 94 66.9857954545455  93.1781994047619 68.9386837121212  91.5345982142857 70.5632102272727  C 89.8909970238095 72.1877367424242  87.9151785714286 73  85.6071428571429 73  L 8.39285714285714 73  C 6.08482142857143 73  4.10900297619048 72.1877367424242  2.46540178571429 70.5632102272727  C 0.821800595238095 68.9386837121212  0 66.9857954545455  0 64.7045454545455  L 0 8.29545454545455  C 0 6.01420454545455  0.821800595238095 4.06131628787878  2.46540178571429 2.43678977272727  C 4.10900297619048 0.812263257575748  6.08482142857143 0  8.39285714285714 0  L 85.6071428571429 0  C 87.9151785714286 0  89.8909970238095 0.812263257575748  91.5345982142857 2.43678977272727  Z " fill-rule="nonzero" fill="#2699fb" stroke="none" transform="matrix(1 0 0 1 140 4112 )" />
  </g>
</svg>