<?xml version="1.0" encoding="utf-8"?>
<svg version="1.1" xmlns:xlink="http://www.w3.org/1999/xlink" width="98px" height="76px" xmlns="http://www.w3.org/2000/svg">
  <g transform="matrix(1 0 0 1 -1019 -3354 )">
    <path d="M 45.7040358744395 57  L 48.780269058296 57  L 55.152466367713 50.7386363636364  L 46.8026905829596 42.5340909090909  L 40.4304932735426 48.7954545454545  L 40.4304932735426 51.8181818181818  L 45.7040358744395 51.8181818181818  L 45.7040358744395 57  Z M 72.8957399103139 19.9176136363636  C 73.5183109118087 19.3058712121212  73.5366218236173 18.7121212121212  72.9506726457399 18.1363636363636  C 72.3647234678625 17.5606060606061  71.7604633781764 17.5785984848485  71.1378923766816 18.1903409090909  L 51.9114349775785 37.0823863636364  C 51.2888639760837 37.6941287878788  51.270553064275 38.2878787878788  51.8565022421525 38.8636363636364  C 52.4424514200299 39.4393939393939  53.046711509716 39.4214015151515  53.6692825112108 38.8096590909091  L 72.8957399103139 19.9176136363636  Z M 76.2466367713004 48.6335227272727  C 76.9790732436473 48.9214015151515  77.3452914798206 49.4431818181818  77 50.1988636363636  L 77 60.4545454545455  C 77.3452914798206 64.7367424242424  75.7980194319881 68.3982007575758  72.7034753363229 71.4389204545455  C 69.6089312406577 74.4796401515152  65.8826606875934 76  61.5246636771301 76  L 15.8206278026906 76  C 11.4626307922272 76  7.73636023916293 74.4796401515152  4.64181614349776 71.4389204545455  C 1.54727204783259 68.3982007575758  0 64.7367424242424  0 60.4545454545455  L 0 15.5454545454545  C 0 11.2632575757576  1.54727204783259 7.60179924242424  4.64181614349776 4.56107954545455  C 7.73636023916293 1.52035984848484  11.4626307922272 0  15.8206278026906 0  L 61.5246636771301 0  C 63.8318385650224 0  65.9742152466368 0.449810606060602  67.9517937219731 1.34943181818181  C 68.5011210762332 1.60132575757575  68.8307174887892 2.01515151515151  68.9405829596413 2.59090909090909  C 69.0504484304933 3.20265151515151  68.8856502242152 3.72443181818181  68.4461883408072 4.15625  L 65.7544843049327 6.80113636363636  C 65.24177877429 7.30492424242424  64.6558295964126 7.44886363636364  63.9966367713005 7.23295454545455  C 63.1543348281016 7.01704545454545  62.3303437967115 6.90909090909091  61.5246636771301 7  L 15.8206278026906 7  C 13.4035874439462 6.90909090909091  11.3344544095665 7.75473484848484  9.61322869955157 9.44602272727273  C 7.89200298953662 11.1373106060606  7.03139013452915 13.1704545454545  7 15.5454545454545  L 7 60.4545454545455  C 7.03139013452915 62.8295454545455  7.89200298953662 64.8626893939394  9.61322869955157 66.5539772727273  C 11.3344544095665 68.2452651515152  13.4035874439462 69.0909090909091  15.8206278026906 69  L 61.5246636771301 69  C 63.9417040358744 69.0909090909091  66.0108370702541 68.2452651515152  67.7320627802691 66.5539772727273  C 69.453288490284 64.8626893939394  70.3139013452915 62.8295454545455  70.3139013452915 60.4545454545455  L 70.3139013452915 53.6534090909091  C 70.3139013452915 53.1856060606061  70.4786995515695 52.7897727272727  70.8082959641256 52.4659090909091  L 74.3239910313901 49.0113636363636  C 74.8733183856502 48.4715909090909  75.5142002989537 48.3456439393939  76.2466367713004 48.6335227272727  Z M 36 46.6363636363636  L 72.0717488789238 10.3636363636364  L 87.8923766816144 25.9090909090909  L 50.9775784753363 62  L 36 62  L 36 46.6363636363636  Z M 98 13.8181818181818  C 98 15.2575757575758  97.4872944693573 16.4810606060606  96.4618834080717 17.4886363636364  L 91.4080717488789 22.4545454545455  L 75.5874439461883 6.90909090909091  L 80.6412556053812 1.94318181818181  C 81.6666666666667 0.935606060606053  82.9118086696562 0.431818181818186  84.3766816143498 0.431818181818186  C 85.8415545590434 0.431818181818186  87.0866965620329 0.935606060606053  88.1121076233184 1.94318181818181  L 96.4618834080717 10.1477272727273  C 97.4872944693573 11.155303030303  98 12.3787878787879  98 13.8181818181818  Z " fill-rule="nonzero" fill="#2699fb" stroke="none" transform="matrix(1 0 0 1 1019 3354 )" />
  </g>
</svg>