<?xml version="1.0" encoding="utf-8"?>
<svg version="1.1" xmlns:xlink="http://www.w3.org/1999/xlink" width="93px" height="72px" xmlns="http://www.w3.org/2000/svg">
  <g transform="matrix(1 0 0 1 -140 -4682 )">
    <path d="M 43.372197309417 54  L 46.2914798206278 54  L 52.3385650224215 48.0681818181818  L 44.414798206278 40.2954545454545  L 38.3677130044843 46.2272727272727  L 38.3677130044843 49.0909090909091  L 43.372197309417 49.0909090909091  L 43.372197309417 54  Z M 69.1765695067265 18.8693181818182  C 69.7673766816144 18.2897727272727  69.7847533632287 17.7272727272727  69.2286995515695 17.1818181818182  C 68.6726457399103 16.6363636363636  68.0992152466368 16.6534090909091  67.5084080717489 17.2329545454545  L 49.2628923766816 35.1306818181818  C 48.6720852017937 35.7102272727273  48.6547085201794 36.2727272727273  49.2107623318386 36.8181818181818  C 49.7668161434978 37.3636363636364  50.3402466367713 37.3465909090909  50.9310538116592 36.7670454545455  L 69.1765695067265 18.8693181818182  Z M 72.3565022421525 46.0738636363636  C 73.0515695067265 46.3465909090909  73.3991031390134 46.8409090909091  73.3991031390134 47.5568181818182  L 73.3991031390134 57.2727272727273  C 73.3991031390134 61.3295454545455  71.9307735426009 64.7982954545455  68.9941143497758 67.6789772727273  C 66.0574551569507 70.5596590909091  62.5213004484305 72  58.3856502242152 72  L 15.0134529147982 72  C 10.877802690583 72  7.34164798206278 70.5596590909091  4.40498878923767 67.6789772727273  C 1.46832959641256 64.7982954545455  0 61.3295454545455  0 57.2727272727273  L 0 14.7272727272727  C 0 10.6704545454545  1.46832959641256 7.20170454545454  4.40498878923767 4.32102272727273  C 7.34164798206278 1.4403409090909  10.877802690583 0  15.0134529147982 0  L 58.3856502242152 0  C 60.5751121076233 0  62.6081838565022 0.42613636363636  64.484865470852 1.27840909090909  C 65.0061659192825 1.51704545454545  65.3189461883408 1.90909090909091  65.4232062780269 2.45454545454545  C 65.527466367713 3.03409090909091  65.3710762331839 3.52840909090909  64.9540358744395 3.9375  L 62.39966367713 6.44318181818182  C 61.9131165919283 6.92045454545454  61.3570627802691 7.05681818181818  60.7315022421525 6.85227272727273  C 59.9321748878924 6.64772727272727  59.1502242152466 6.54545454545455  58.3856502242152 7  L 15.0134529147982 7  C 12.719730941704 6.54545454545455  10.7561659192825 7.3465909090909  9.12275784753363 8.94886363636363  C 7.48934977578475 10.5511363636364  6.67264573991031 12.4772727272727  7 14.7272727272727  L 7 57.2727272727273  C 6.67264573991031 59.5227272727273  7.48934977578475 61.4488636363636  9.12275784753363 63.0511363636364  C 10.7561659192825 64.6534090909091  12.719730941704 65.4545454545455  15.0134529147982 65  L 58.3856502242152 65  C 60.6793721973094 65.4545454545455  62.6429372197309 64.6534090909091  64.2763452914798 63.0511363636364  C 65.9097533632287 61.4488636363636  66.7264573991031 59.5227272727273  66.7264573991031 57.2727272727273  L 66.7264573991031 50.8295454545455  C 66.7264573991031 50.3863636363636  66.8828475336323 50.0113636363636  67.1956278026906 49.7045454545455  L 70.5319506726457 46.4318181818182  C 71.0532511210762 45.9204545454545  71.6614349775785 45.8011363636364  72.3565022421525 46.0738636363636  Z M 34 44.1818181818182  L 68.3946188340807 9.81818181818182  L 83.4080717488789 24.5454545454545  L 48.3766816143498 59  L 34 59  L 34 44.1818181818182  Z M 93 13.0909090909091  C 93 14.4545454545454  92.5134529147982 15.6136363636364  91.5403587443946 16.5681818181818  L 86.7443946188341 21.2727272727273  L 71.7309417040359 6.54545454545455  L 76.5269058295964 1.84090909090909  C 77.5 0.88636363636363  78.6816143497758 0.409090909090913  80.0717488789238 0.409090909090913  C 81.4618834080718 0.409090909090913  82.6434977578475 0.88636363636363  83.6165919282511 1.84090909090909  L 91.5403587443946 9.61363636363637  C 92.5134529147982 10.5681818181818  93 11.7272727272727  93 13.0909090909091  Z " fill-rule="nonzero" fill="#2699fb" stroke="none" transform="matrix(1 0 0 1 140 4682 )" />
  </g>
</svg>