<?xml version="1.0" encoding="utf-8"?>
<svg version="1.1" xmlns:xlink="http://www.w3.org/1999/xlink" width="17px" height="18px" xmlns="http://www.w3.org/2000/svg">
  <g transform="matrix(1 0 0 1 -1041 -3813 )">
    <path d="M 16.7928337333705 9  C 17.7906068309182 3.23374247413763  13.9914797346625 0.0204903036955607  9.49592040924585 0.0204903036955607  C 4.23249990808776 0.0204903036955607  0.167746416735413 4.45562097373294  0.167746416735413 9.9485303085742  C 0.167746416735413 15.1753318032133  3.79946191944288 17.8896317732761  8.0963594871822 17.8896317732761  C 10.6945874190516 17.8896317732761  13.292815350921 16.929425983213  15.1254142616296 14.8781780483207  L 14.4245177233074 14.2816529732007  C 12.9937066371147 15.9714377584849  10.6945874190516 16.929425983213  8.26377108073048 16.929425983213  C 4.36642918292639 16.929425983213  1.16775166886384 14.5144973333777  1.16775166886384 9.81547638847305  L 1.16775166886384 9  L 16.7928337333705 9  Z M 9.4624380905362 0.985131224428705  C 13.292815350921 0.985131224428705  16.4580105462739 3.69721362915656  16.0339011759516 8.32970761401057  L 1.2681986249928 8.32970761401057  C 1.93784499918594 4.09415782412489  5.26598747892584 0.985131224428705  9.4624380905362 0.985131224428705  Z " fill-rule="nonzero" fill="#ffffff" stroke="none" transform="matrix(1 0 0 1 1041 3813 )" />
  </g>
</svg>