<?xml version="1.0" encoding="utf-8"?>
<svg version="1.1" xmlns:xlink="http://www.w3.org/1999/xlink" width="18px" height="18px" xmlns="http://www.w3.org/2000/svg">
  <g transform="matrix(1 0 0 1 -1090 -3813 )">
    <path d="M 17.681506336693 11  C 18.8872243289093 3.03637915932097  13.5546726873566 0.0204903036955607  9.13819728570005 0.0204903036955607  C 4.61394820876162 0.0204903036955607  0.190736952399979 3.16278038341702  0.190736952399979 8.98832451851112  C 0.190736952399979 14.6475512534788  4.54658966171041 17.8896317732761  9.43906546252871 17.8896317732761  C 12.7216719888235 17.8896317732761  15.1690325316835 16.5590925722649  16.5745808801517 14.8116510882702  L 14.0284278016166 12.1306145982326  C 12.7553512623491 12.9910299482198  11.4822747230815 13.2571377884221  10.0744810897116 13.2571377884221  C 8.05372467817583 13.2571377884221  6.55611964873768 12.5608222732262  5.85334547450356 11  L 17.681506336693 11  Z M 12.5892001796228 7.13887502910553  L 5.65351511825166 7.13887502910553  C 6.25525147190899 5.51783476920689  7.73040365233011 4.79047333932076  9.20331054784951 4.79047333932076  C 10.6762174433689 4.79047333932076  12.1872941822173 5.51783476920687  12.5892001796228 7.13887502910553  Z " fill-rule="nonzero" fill="#ffffff" stroke="none" transform="matrix(1 0 0 1 1090 3813 )" />
  </g>
</svg>