<?xml version="1.0" encoding="utf-8"?>
<svg version="1.1" xmlns:xlink="http://www.w3.org/1999/xlink" width="19px" height="25px" xmlns="http://www.w3.org/2000/svg">
  <g transform="matrix(1 0 0 1 -1146 -3813 )">
    <path d="M 17.3284884874294 0.360144597246647  L 16.8716165931063 4.3854751867924  L 16.7345550248094 4.3854751867924  C 15.8824889418967 1.836773406477  13.1549637327876 0.025262264559732  9.65304066280094 0.025262264559732  C 4.17057793092338 0.025262264559732  0.00619061416810804 4.35176220028029  0.00619061416810804 10.0200389991828  C 0.00619061416810804 15.3848989194763  3.82335529123784 18.1358786188643  8.08597006527256 18.1358786188643  C 11.2703360109737 18.1759488168146  14.2234829074303 16.5043165882638  15.7888302035605 13.7756656966317  L 15.8916263797832 13.7756656966317  L 15.5855222105867 16.8952407152188  C 15.0395602968706 21.824079343289  11.1538648356524 23.3681341255436  7.5742735436307 23.3681341255436  C 5.01807529489279 23.3681341255436  3.41445494581863 22.5972305006334  2.69945043120298 22.0600702488737  L 2.52812347083181 23.502986071592  C 3.17688156077064 24.0378987909174  5.11858711164392 24.7773369617497  7.70905075245608 24.7773369617497  C 11.9031347423423 24.7773369617497  16.5061190776479 22.8646868602961  17.1183274160409 17.0952711018572  L 18.8909903660146 0.360144597246647  L 17.3284884874294 0.360144597246647  Z M 8.35780884239486 16.6929627961461  L 8.34867140450839 16.6929627961461  C 4.7690801124867 16.6929627961461  1.59838916588422 14.5128563350297  1.59838916588422 9.98632601267067  C 1.59838916588422 5.26650790097548  5.0751842816832 1.46593055484382  9.74669940113718 1.46593055484382  C 13.2920253010846 1.46593055484382  16.5312470318356 3.67975000247226  16.5312470318356 8.20852785726548  C 16.540384469722 12.9036231121851  13.0613049944514 16.6929627961461  8.35780884239486 16.6929627961461  Z " fill-rule="nonzero" fill="#ffffff" stroke="none" transform="matrix(1 0 0 1 1146 3813 )" />
  </g>
</svg>